<svg width="42" height="42" viewBox="0 0 42 42" fill="none" xmlns="http://www.w3.org/2000/svg">
<path d="M3.10208 38.5752L5.59948 29.4567C4.05917 26.7882 3.24879 23.7606 3.24978 20.6592C3.25373 10.9565 11.1498 3.06274 20.8529 3.06274C25.5615 3.06504 29.981 4.89746 33.3049 8.2237C36.6278 11.5499 38.4576 15.9711 38.456 20.6734C38.4517 30.3755 30.5543 38.2706 20.8529 38.2706C20.8522 38.2706 20.8536 38.2706 20.8529 38.2706H20.8453C17.8995 38.2694 15.0048 37.5304 12.4336 36.1283L3.10208 38.5752Z" fill="white"/>
<path d="M20.8585 6.03522C12.7881 6.03522 6.22492 12.596 6.22196 20.6602C6.22076 23.4236 6.99413 26.1152 8.45861 28.4442L8.80676 28.9974L7.32835 34.3944L12.8659 32.9424L13.4006 33.2593C15.6464 34.5922 18.2213 35.2971 20.8473 35.2984H20.8528C28.917 35.2984 35.4802 28.7369 35.4835 20.6721C35.4849 16.7639 33.9647 13.0889 31.2022 10.3244C28.4397 7.55999 24.7667 6.03687 20.8585 6.03522Z" fill="url(#paint0_linear_79_632)"/>
<path fill-rule="evenodd" clip-rule="evenodd" d="M16.4535 13.3026C16.1238 12.5704 15.777 12.5556 15.4638 12.5427C15.2073 12.5318 14.9139 12.5325 14.6208 12.5325C14.3273 12.5325 13.8509 12.6426 13.4481 13.0827C13.0449 13.5229 11.9084 14.5868 11.9084 16.7509C11.9084 18.9149 13.4847 21.0058 13.7042 21.2996C13.9241 21.593 16.7469 26.1757 21.2178 27.9385C24.9331 29.4037 25.6891 29.1122 26.4958 29.039C27.3022 28.9658 29.0981 27.9751 29.4643 26.9481C29.831 25.9212 29.831 25.0412 29.7212 24.8573C29.6111 24.6736 29.318 24.5638 28.8778 24.3439C28.438 24.124 26.2756 23.0598 25.8724 22.9131C25.4692 22.7664 25.1761 22.6932 24.8827 23.1333C24.5896 23.5734 23.7472 24.5638 23.4904 24.8573C23.2339 25.151 22.9774 25.1876 22.5373 24.9677C22.0975 24.7471 20.6808 24.2833 19.0004 22.7848C17.6928 21.619 16.8102 20.1793 16.5534 19.7392C16.2969 19.299 16.526 19.061 16.7466 18.8417C16.9441 18.6446 17.1864 18.3281 17.4066 18.0713C17.6259 17.8144 17.6994 17.6311 17.8458 17.338C17.9925 17.0443 17.9193 16.7874 17.8092 16.5675C17.6994 16.3476 16.8445 14.1724 16.4535 13.3026" fill="white"/>
<defs>
<linearGradient id="paint0_linear_79_632" x1="20.5549" y1="7.79132" x2="20.7033" y2="32.7984" gradientUnits="userSpaceOnUse">
<stop stop-color="#57D163"/>
<stop offset="1" stop-color="#23B33A"/>
</linearGradient>
</defs>
</svg>
